<?xml version="1.0" encoding="UTF-8" standalone="no"?>
<!-- Created with Inkscape (http://www.inkscape.org/) -->
<svg
   xmlns:dc="http://purl.org/dc/elements/1.1/"
   xmlns:cc="http://creativecommons.org/ns#"
   xmlns:rdf="http://www.w3.org/1999/02/22-rdf-syntax-ns#"
   xmlns:svg="http://www.w3.org/2000/svg"
   xmlns="http://www.w3.org/2000/svg"
   xmlns:sodipodi="http://sodipodi.sourceforge.net/DTD/sodipodi-0.dtd"
   xmlns:inkscape="http://www.inkscape.org/namespaces/inkscape"
   width="6905.5938"
   height="741"
   id="svg2449"
   sodipodi:version="0.32"
   inkscape:version="0.46"
   version="1.0"
   sodipodi:docname="digits.svg"
   inkscape:output_extension="org.inkscape.output.svg.inkscape">
  <defs
     id="defs2451">
    <inkscape:perspective
       sodipodi:type="inkscape:persp3d"
       inkscape:vp_x="0 : 526.18109 : 1"
       inkscape:vp_y="0 : 1000 : 0"
       inkscape:vp_z="744.09448 : 526.18109 : 1"
       inkscape:persp3d-origin="372.04724 : 350.78739 : 1"
       id="perspective2457" />
  </defs>
  <sodipodi:namedview
     id="base"
     pagecolor="#ffffff"
     bordercolor="#000000"
     borderopacity="1.0"
     inkscape:pageopacity="1.0"
     inkscape:pageshadow="0"
     inkscape:zoom="0.34"
     inkscape:cx="515.95122"
     inkscape:cy="520"
     inkscape:document-units="px"
     inkscape:current-layer="layer1"
     showgrid="false"
     inkscape:window-width="645"
     inkscape:window-height="722"
     inkscape:window-x="532"
     inkscape:window-y="48" />
  <metadata
     id="metadata2454">
    <rdf:RDF>
      <cc:Work
         rdf:about="">
        <dc:format>image/svg+xml</dc:format>
        <dc:type
           rdf:resource="http://purl.org/dc/dcmitype/StillImage" />
      </cc:Work>
    </rdf:RDF>
  </metadata>
  <g
     inkscape:label="Layer 1"
     inkscape:groupmode="layer"
     id="layer1"
     transform="translate(-107,-312.36218)">
    <path
       style="font-size:1000px;font-style:normal;font-variant:normal;font-weight:normal;font-stretch:normal;fill:#000000;fill-opacity:1;stroke:none;stroke-width:1px;stroke-linecap:butt;stroke-linejoin:miter;stroke-opacity:1;font-family:OCRA;-inkscape-font-specification:OCRA"
       d="M 191,313.36218 C 193.66647,312.69626 243.99976,312.36292 342,312.36218 C 443.99956,312.36292 498.9995,313.36292 507,315.36218 C 539.66613,324.02958 561.66611,344.02956 573,375.36218 C 575.66609,382.69619 577.33276,390.36284 578,398.36218 L 579,686.36218 L 579,969.36218 L 577,975.36218 C 573.66609,991.36224 566.99943,1005.3622 557,1017.3622 C 540.33279,1037.3622 518.99948,1048.6955 493,1051.3622 L 339,1052.3622 L 190,1052.3622 L 184,1050.3622 C 161.33317,1045.0289 142.66652,1034.0289 128,1017.3622 C 119.33321,1006.0289 113.33322,993.69557 110,980.36218 C 107.99989,972.36226 106.99989,894.69567 107,747.36218 L 107,682.36218 C 106.99989,491.69608 107.99989,392.69618 110,385.36218 C 117.99988,352.69622 137.66653,330.3629 169,318.36218 C 175.66649,315.69625 182.99982,314.02959 191,313.36218 M 483,682.36218 L 483,408.36218 L 343,408.36218 L 202,408.36218 L 202,682.36218 L 202,956.36218 L 343,956.36218 L 483,956.36218 L 483,682.36218 M 861.84375,313.36218 C 863.8436,312.69626 904.84356,312.36292 984.84375,312.36218 L 1104.8438,312.36218 L 1104.8438,634.36218 L 1104.8438,956.36218 L 1151.8438,956.36218 L 1197.8438,956.36218 L 1197.8438,857.36218 C 1197.8433,789.36245 1198.8433,752.36248 1200.8438,746.36218 C 1200.8433,746.36249 1202.1766,743.69582 1204.8438,738.36218 C 1208.8433,731.69584 1214.5099,726.02918 1221.8438,721.36218 C 1227.1766,718.69585 1233.5099,716.69585 1240.8438,715.36218 C 1247.5099,714.69585 1254.1765,715.36252 1260.8438,717.36218 C 1264.8432,718.69585 1268.5099,720.36251 1271.8438,722.36218 C 1278.5099,727.02917 1283.5098,732.3625 1286.8438,738.36218 C 1290.1765,743.69582 1292.1765,749.69582 1292.8438,756.36218 L 1293.8438,886.36218 C 1293.8432,973.02893 1292.1765,1019.3622 1288.8438,1025.3622 C 1284.1765,1035.3622 1276.8432,1042.6955 1266.8438,1047.3622 C 1263.5099,1049.3622 1260.5099,1050.6955 1257.8438,1051.3622 C 1255.1765,1052.0288 1188.5099,1052.3622 1057.8438,1052.3622 L 861.84375,1052.3622 L 856.84375,1050.3622 C 834.84363,1041.6955 823.17697,1026.3622 821.84375,1004.3622 C 821.84364,982.36225 833.5103,967.02893 856.84375,958.36218 L 860.84375,957.36218 L 934.84375,956.36218 L 1009.8438,956.36218 L 1009.8438,682.36218 L 1009.8438,408.36218 L 934.84375,408.36218 L 860.84375,408.36218 L 856.84375,406.36218 C 842.17696,402.36283 831.84363,393.69617 825.84375,380.36218 C 821.84364,372.36286 820.51031,363.6962 821.84375,354.36218 C 822.51031,349.69622 823.84364,345.02956 825.84375,340.36218 C 832.5103,325.02958 844.51029,316.02959 861.84375,313.36218 M 1576.6875,313.36218 C 1578.6874,312.69626 1636.354,312.36292 1749.6875,312.36218 C 1866.3537,312.36292 1928.687,313.36292 1936.6875,315.36218 C 1969.3536,324.02958 1991.3536,344.36289 2002.6875,376.36218 C 2005.3536,382.36285 2007.0203,389.02951 2007.6875,396.36218 L 2007.6875,646.36218 C 2004.3536,669.02923 1994.6869,688.02921 1978.6875,703.36218 C 1966.0203,715.36252 1951.0203,723.69584 1933.6875,728.36218 L 1926.6875,729.36218 L 1779.6875,730.36218 C 1682.3539,730.3625 1633.354,730.3625 1632.6875,730.36218 C 1632.0206,730.3625 1631.6873,768.02913 1631.6875,843.36218 L 1631.6875,956.36218 L 1798.6875,956.36218 C 1909.3537,956.36228 1966.0203,956.69561 1968.6875,957.36218 C 1989.3536,961.36227 2002.0203,973.36226 2006.6875,993.36218 C 2007.3536,996.69557 2007.6869,1000.3622 2007.6875,1004.3622 C 2007.6869,1025.6955 1998.0203,1040.3622 1978.6875,1048.3622 L 1968.6875,1051.3622 L 1750.6875,1052.3622 L 1536.6875,1052.3622 L 1536.6875,885.36218 L 1536.6875,718.36218 L 1537.6875,712.36218 C 1542.3541,691.69588 1552.0207,674.69589 1566.6875,661.36218 C 1582.6873,646.02926 1602.0207,637.3626 1624.6875,635.36218 C 1630.0206,634.69593 1679.3539,634.3626 1772.6875,634.36218 L 1912.6875,634.36218 L 1912.6875,521.36218 L 1912.6875,408.36218 L 1744.6875,408.36218 L 1575.6875,408.36218 L 1571.6875,406.36218 C 1557.0207,402.36283 1546.6874,393.69617 1540.6875,380.36218 C 1536.6874,372.36286 1535.3541,363.6962 1536.6875,354.36218 C 1537.3541,349.69622 1538.6874,345.02956 1540.6875,340.36218 C 1547.354,325.02958 1559.354,316.02959 1576.6875,313.36218 M 2291.5312,313.36218 C 2293.5311,312.69626 2351.1977,312.36292 2464.5312,312.36218 C 2581.1975,312.36292 2643.5308,313.36292 2651.5312,315.36218 C 2684.1974,324.02958 2706.1974,344.36289 2717.5312,376.36218 C 2720.1973,382.36285 2721.864,389.02951 2722.5312,396.36218 L 2722.5312,601.36218 L 2722.5312,602.36218 C 2719.1973,629.69594 2708.864,654.02925 2691.5312,675.36218 L 2687.5312,681.36218 L 2690.5312,687.36218 C 2701.1974,700.0292 2709.1974,714.02919 2714.5312,729.36218 C 2717.864,737.3625 2720.1973,746.36249 2721.5312,756.36218 L 2723.5312,764.36218 L 2723.5312,866.36218 L 2723.5312,968.36218 L 2721.5312,974.36218 C 2718.1973,991.02891 2711.5307,1005.3622 2701.5312,1017.3622 C 2684.864,1037.3622 2663.5307,1048.6955 2637.5312,1051.3622 L 2461.5312,1052.3622 L 2290.5312,1052.3622 L 2286.5312,1050.3622 C 2264.5311,1043.6955 2252.8645,1028.3622 2251.5312,1004.3622 C 2251.5311,981.69559 2263.1978,966.36227 2286.5312,958.36218 L 2290.5312,957.36218 L 2459.5312,956.36218 L 2627.5312,956.36218 L 2627.5312,863.36218 C 2627.5308,798.69577 2625.8641,763.36247 2622.5312,757.36218 C 2617.8641,747.36249 2610.5308,740.02916 2600.5312,735.36218 C 2594.5308,732.02917 2578.1975,730.3625 2551.5312,730.36218 L 2486.5312,730.36218 C 2416.531,729.69584 2378.1977,728.02917 2371.5312,725.36218 C 2359.531,719.36252 2351.1977,709.36253 2346.5312,695.36218 C 2345.8644,692.02921 2345.531,687.69588 2345.5312,682.36218 C 2345.531,676.36256 2345.8644,672.02923 2346.5312,669.36218 C 2351.1977,655.36258 2359.531,645.36259 2371.5312,639.36218 C 2378.1977,636.02927 2392.8643,634.3626 2415.5312,634.36218 C 2420.1976,634.3626 2443.8643,634.3626 2486.5312,634.36218 L 2588.5312,634.36218 L 2593.5312,632.36218 C 2610.1975,627.02927 2621.1974,615.69595 2626.5312,598.36218 C 2627.1974,595.69597 2627.5308,563.36267 2627.5312,501.36218 L 2627.5312,408.36218 L 2459.5312,408.36218 L 2290.5312,408.36218 L 2286.5312,406.36218 C 2271.8645,402.36283 2261.5311,393.69617 2255.5312,380.36218 C 2251.5311,372.36286 2250.1978,363.6962 2251.5312,354.36218 C 2252.1978,349.69622 2253.5311,345.02956 2255.5312,340.36218 C 2262.1978,325.02958 2274.1978,316.02959 2291.5312,313.36218 M 3028.375,313.36218 L 3049.375,314.36218 C 3056.0415,315.69625 3062.0415,318.69625 3067.375,323.36218 C 3075.3748,330.02957 3081.0414,338.3629 3084.375,348.36218 C 3085.0414,351.02955 3085.3748,412.69616 3085.375,533.36218 L 3085.375,715.36218 L 3178.375,715.36218 L 3271.375,715.36218 L 3271.375,574.36218 L 3271.375,432.36218 L 3273.375,428.36218 C 3278.7079,409.69616 3290.3746,398.36284 3308.375,394.36218 L 3321.375,393.36218 C 3328.0412,394.02951 3334.3745,395.69617 3340.375,398.36218 C 3353.0412,404.36283 3361.3745,414.36282 3365.375,428.36218 L 3367.375,432.36218 L 3367.375,573.36218 L 3367.375,715.36218 L 3371.375,715.36218 C 3389.3745,717.36252 3402.3745,726.69584 3410.375,743.36218 C 3413.7078,751.36248 3415.0411,759.69581 3414.375,768.36218 L 3410.375,782.36218 C 3402.3745,799.0291 3389.3745,808.36243 3371.375,810.36218 L 3367.375,811.36218 L 3367.375,912.36218 C 3366.7078,981.69559 3365.0412,1019.3622 3362.375,1025.3622 C 3357.7078,1035.3622 3350.3745,1042.6955 3340.375,1047.3622 C 3331.7079,1051.3622 3322.7079,1053.0288 3313.375,1052.3622 C 3310.0412,1051.6955 3306.7079,1050.6955 3303.375,1049.3622 C 3297.3746,1047.3622 3291.7079,1043.6955 3286.375,1038.3622 C 3280.3746,1032.3622 3276.3746,1026.6955 3274.375,1021.3622 C 3272.3746,1015.3622 3271.3746,978.02892 3271.375,909.36218 L 3271.375,810.36218 L 3130.375,810.36218 L 2989.375,810.36218 L 2989.375,583.36218 C 2989.3749,428.69614 2990.3749,348.69622 2992.375,343.36218 C 2994.3749,338.02956 2998.3749,332.69624 3004.375,327.36218 C 3011.0415,320.02958 3019.0415,315.36292 3028.375,313.36218 M 3775.2188,521.36218 L 3775.2188,312.36218 L 3942.2188,312.36218 C 4053.5516,312.36292 4110.5515,312.69626 4113.2188,313.36218 C 4133.8849,317.36292 4146.5515,329.36291 4151.2188,349.36218 C 4151.8848,352.69622 4152.2182,356.36288 4152.2188,360.36218 C 4152.2182,381.02952 4142.8848,395.69617 4124.2188,404.36218 C 4120.8849,405.69616 4117.2182,406.69616 4113.2188,407.36218 C 4110.5515,408.02949 4069.5516,408.36283 3990.2188,408.36218 L 3870.2188,408.36218 L 3870.2188,521.36218 L 3870.2188,634.36218 L 3967.2188,634.36218 C 4035.2183,634.3626 4073.2183,635.3626 4081.2188,637.36218 C 4114.5515,646.02926 4136.5515,666.36257 4147.2188,698.36218 C 4149.8848,705.69586 4151.5515,712.69586 4152.2188,719.36218 L 4153.2188,847.36218 L 4153.2188,969.36218 L 4151.2188,975.36218 C 4147.8848,991.36224 4141.2182,1005.3622 4131.2188,1017.3622 C 4117.8849,1033.3622 4101.2182,1044.0289 4081.2188,1049.3622 C 4073.2183,1051.3622 4029.2183,1052.3622 3949.2188,1052.3622 C 3872.5518,1052.3622 3830.8852,1052.0288 3824.2188,1051.3622 C 3814.8852,1050.0289 3805.8852,1048.0289 3797.2188,1045.3622 L 3704.2188,1005.3622 C 3695.552,1000.0289 3689.2186,993.02891 3685.2188,984.36218 C 3681.2186,976.36226 3679.8853,967.36227 3681.2188,957.36218 C 3681.8853,952.69562 3683.552,948.02895 3686.2188,943.36218 C 3694.8853,924.69564 3709.5519,915.69565 3730.2188,916.36218 C 3734.8853,916.36232 3739.2186,917.02898 3743.2188,918.36218 C 3745.8852,919.69565 3760.5519,926.02898 3787.2188,937.36218 C 3813.2185,948.69562 3827.5518,954.69561 3830.2188,955.36218 C 3832.2185,956.02895 3870.5518,956.36228 3945.2188,956.36218 L 4057.2188,956.36218 L 4057.2188,843.36218 L 4057.2188,730.36218 L 3916.2188,730.36218 L 3775.2188,730.36218 L 3775.2188,521.36218 M 4435.0625,313.36218 L 4499.0625,313.36218 C 4509.0623,315.36292 4517.7289,320.02958 4525.0625,327.36218 C 4533.7289,336.69623 4538.0623,347.69622 4538.0625,360.36218 C 4538.0623,381.02952 4528.3956,395.69617 4509.0625,404.36218 C 4505.0623,406.36283 4501.0623,407.69616 4497.0625,408.36218 L 4491.0625,408.36218 L 4491.0625,561.36218 L 4491.0625,715.36218 L 4660.0625,715.36218 C 4772.062,715.36252 4829.3953,715.69585 4832.0625,716.36218 C 4839.3953,718.36252 4845.3953,721.36251 4850.0625,725.36218 C 4855.3953,730.02917 4859.7286,735.3625 4863.0625,741.36218 C 4865.7286,748.02915 4867.3953,762.36247 4868.0625,784.36218 L 4868.0625,883.36218 C 4868.0619,972.02893 4866.3953,1019.3622 4863.0625,1025.3622 C 4859.7286,1032.0289 4855.3953,1037.3622 4850.0625,1041.3622 C 4845.3953,1045.3622 4839.3953,1048.6955 4832.0625,1051.3622 C 4829.3953,1052.0288 4763.7287,1052.3622 4635.0625,1052.3622 L 4437.0625,1051.3622 C 4430.3957,1050.6955 4424.3957,1048.6955 4419.0625,1045.3622 C 4412.3957,1041.3622 4406.729,1035.6955 4402.0625,1028.3622 C 4399.3957,1023.6955 4397.3957,1018.3622 4396.0625,1012.3622 L 4396.0625,352.36218 C 4398.0624,343.02956 4402.7291,334.69623 4410.0625,327.36218 C 4417.3957,320.02958 4425.729,315.36292 4435.0625,313.36218 M 4772.0625,883.36218 L 4772.0625,810.36218 L 4632.0625,810.36218 L 4491.0625,810.36218 L 4491.0625,883.36218 L 4491.0625,956.36218 L 4632.0625,956.36218 L 4772.0625,956.36218 L 4772.0625,883.36218 M 5149.9062,313.36218 C 5152.5728,312.69626 5225.2394,312.36292 5367.9062,312.36218 L 5582.9062,312.36218 L 5582.9062,459.36218 C 5582.9057,560.02934 5581.9057,613.02929 5579.9062,618.36218 C 5577.9057,624.36261 5574.5723,629.69594 5569.9062,634.36218 C 5567.239,637.02926 5537.2391,662.69591 5479.9062,711.36218 L 5393.9062,785.36218 L 5393.9062,899.36218 C 5393.9059,977.36226 5392.2392,1019.3622 5388.9062,1025.3622 C 5384.2392,1035.3622 5377.2392,1042.6955 5367.9062,1047.3622 C 5358.5726,1051.3622 5349.5726,1053.0288 5340.9062,1052.3622 C 5337.5726,1051.6955 5333.9059,1050.6955 5329.9062,1049.3622 C 5323.9059,1047.3622 5318.2393,1043.6955 5312.9062,1038.3622 C 5307.5726,1032.3622 5303.906,1026.6955 5301.9062,1021.3622 C 5299.906,1015.3622 5298.906,975.02893 5298.9062,900.36218 C 5298.906,893.02901 5298.906,887.36235 5298.9062,883.36218 C 5298.906,797.36244 5299.906,751.69582 5301.9062,746.36218 C 5303.906,741.02916 5307.2393,735.69583 5311.9062,730.36218 C 5314.5726,727.69584 5344.2392,702.0292 5400.9062,653.36218 L 5486.9062,580.36218 L 5486.9062,494.36218 L 5486.9062,408.36218 L 5345.9062,408.36218 L 5205.9062,408.36218 L 5204.9062,410.36218 C 5204.2394,415.69615 5202.5727,420.36281 5199.9062,424.36218 C 5195.9061,431.69614 5190.5727,437.3628 5183.9062,441.36218 C 5175.2394,446.69612 5164.9061,449.02945 5152.9062,448.36218 C 5141.5728,447.02945 5131.9061,442.02946 5123.9062,433.36218 C 5119.2395,428.02947 5115.9061,422.69615 5113.9062,417.36218 C 5111.9061,411.36282 5110.9061,399.0295 5110.9062,380.36218 C 5110.9061,361.69621 5111.9061,349.36289 5113.9062,343.36218 C 5115.9061,338.02956 5119.5728,332.69624 5124.9062,327.36218 C 5132.2395,320.02958 5140.5728,315.36292 5149.9062,313.36218 M 5958.75,313.36218 L 6062.75,312.36218 C 6132.0829,313.02959 6170.0829,314.69625 6176.75,317.36218 C 6186.0829,322.02958 6193.0829,329.36291 6197.75,339.36218 C 6201.0829,345.36289 6202.7495,359.02954 6202.75,380.36218 L 6202.75,493.36218 L 6202.75,634.36218 L 6205.75,634.36218 C 6211.0828,634.3626 6217.7495,635.3626 6225.75,637.36218 C 6257.7495,645.36259 6279.4161,664.6959 6290.75,695.36218 C 6292.7494,700.0292 6294.0828,704.36253 6294.75,708.36218 C 6296.7494,716.36252 6297.7494,762.69581 6297.75,847.36218 L 6297.75,969.36218 L 6295.75,975.36218 C 6292.4161,991.36224 6285.7494,1005.3622 6275.75,1017.3622 C 6259.0828,1037.3622 6237.7495,1048.6955 6211.75,1051.3622 L 6057.75,1052.3622 L 5908.75,1052.3622 L 5902.75,1050.3622 C 5880.0832,1045.0289 5861.4165,1034.0289 5846.75,1017.3622 C 5838.0832,1006.0289 5832.0832,993.69557 5828.75,980.36218 C 5826.7499,972.36226 5825.7499,926.69564 5825.75,843.36218 C 5825.7499,760.02914 5826.7499,714.36252 5828.75,706.36218 C 5836.7499,674.36256 5856.4165,652.36258 5887.75,640.36218 C 5896.4165,637.02926 5905.0831,635.02927 5913.75,634.36218 L 5919.75,634.36218 L 5919.75,495.36218 C 5919.7498,400.0295 5920.7498,349.36289 5922.75,343.36218 C 5924.7498,338.02956 5928.4165,332.69624 5933.75,327.36218 C 5941.0831,320.02958 5949.4164,315.36292 5958.75,313.36218 M 6107.75,521.36218 L 6107.75,408.36218 L 6060.75,408.36218 L 6014.75,408.36218 L 6014.75,521.36218 L 6014.75,634.36218 L 6060.75,634.36218 L 6107.75,634.36218 L 6107.75,521.36218 M 6201.75,843.36218 L 6201.75,730.36218 L 6061.75,730.36218 L 5920.75,730.36218 L 5920.75,843.36218 L 5920.75,956.36218 L 6061.75,956.36218 L 6201.75,956.36218 L 6201.75,843.36218 M 6579.5938,313.36218 L 6778.5938,312.36218 C 6907.9266,313.02959 6973.9265,313.69625 6976.5938,314.36218 C 6983.9265,316.36292 6989.9265,319.36292 6994.5938,323.36218 C 7002.5932,330.02957 7008.2598,338.3629 7011.5938,348.36218 C 7012.2598,351.02955 7012.5932,462.36277 7012.5938,682.36218 C 7012.5932,902.36233 7012.2598,1013.6956 7011.5938,1016.3622 C 7010.2598,1019.0289 7008.9265,1022.0289 7007.5938,1025.3622 C 7002.9265,1035.3622 6995.5932,1042.6955 6985.5938,1047.3622 C 6978.9265,1050.6955 6964.9266,1052.3622 6943.5938,1052.3622 L 6905.5938,1050.3622 C 6904.2599,1050.3622 6902.5933,1050.0289 6900.5938,1049.3622 C 6894.5933,1047.3622 6889.26,1044.0289 6884.5938,1039.3622 C 6878.5933,1033.3622 6874.26,1026.0289 6871.5938,1017.3622 C 6869.5933,1010.0289 6869.26,1002.6956 6870.5938,995.36218 C 6871.26,990.69558 6872.5933,986.69558 6874.5938,983.36218 C 6881.9266,968.02893 6894.26,959.36228 6911.5938,957.36218 L 6916.5938,956.36218 L 6916.5938,803.36218 L 6916.5938,650.36218 L 6750.5938,650.36218 C 6636.5935,650.36258 6576.9269,649.02925 6571.5938,646.36218 C 6565.5936,644.36259 6559.927,640.69593 6554.5938,635.36218 C 6547.2603,628.02927 6542.5936,619.69595 6540.5938,610.36218 L 6540.5938,352.36218 C 6542.5936,343.02956 6547.2603,334.69623 6554.5938,327.36218 C 6561.927,320.02958 6570.2603,315.36292 6579.5938,313.36218 M 6916.5938,481.36218 L 6916.5938,408.36218 L 6776.5938,408.36218 L 6635.5938,408.36218 L 6635.5938,481.36218 L 6635.5938,554.36218 L 6776.5938,554.36218 L 6916.5938,554.36218 L 6916.5938,481.36218"
       id="text2459" />
  </g>
</svg>
